<?xml version="1.0" standalone="no"?>
<!DOCTYPE svg PUBLIC "-//W3C//DTD SVG 20010904//EN"
 "http://www.w3.org/TR/2001/REC-SVG-20010904/DTD/svg10.dtd">
<svg version="1.0" xmlns="http://www.w3.org/2000/svg"
 width="700.000000pt" height="700.000000pt" viewBox="0 0 700.000000 700.000000"
 preserveAspectRatio="xMidYMid meet">
<metadata>
Created by potrace 1.14, written by Peter Selinger 2001-2017
</metadata>
<g transform="translate(0.000000,700.000000) scale(0.100000,-0.100000)"
fill="#000000" stroke="none">
<path d="M3728 6436 c-1 -2 -70 -6 -153 -10 -82 -3 -166 -8 -185 -11 -19 -3
-53 -7 -75 -10 -35 -4 -92 -13 -200 -31 -17 -3 -84 -18 -150 -35 -66 -16 -131
-32 -144 -35 -50 -11 -270 -87 -372 -129 -762 -312 -1357 -927 -1374 -1422 -9
-249 108 -378 349 -388 156 -6 243 29 356 144 82 83 144 174 264 385 117 204
174 290 273 407 163 194 359 327 618 419 100 35 256 76 325 85 25 3 56 8 70
10 113 19 500 28 590 14 25 -4 66 -10 92 -13 74 -10 227 -51 304 -81 269 -107
435 -278 514 -530 30 -97 35 -142 34 -285 -1 -100 -6 -146 -28 -228 -43 -171
-122 -343 -228 -502 -28 -41 -54 -77 -57 -80 -3 -3 -24 -27 -46 -55 -135 -169
-350 -340 -575 -458 -204 -107 -382 -153 -622 -164 -158 -7 -154 -10 -112 78
15 30 39 81 54 114 15 33 51 109 79 168 28 60 51 110 51 112 0 3 12 30 26 62
97 210 221 534 240 624 37 175 -10 298 -127 333 -107 32 -192 -6 -334 -148
-109 -110 -114 -115 -212 -243 -55 -73 -243 -349 -243 -358 0 -2 -29 -50 -65
-109 -35 -58 -109 -183 -164 -278 -89 -157 -123 -216 -246 -443 -21 -38 -55
-101 -77 -138 -21 -38 -38 -70 -38 -72 0 -2 -15 -30 -34 -62 -18 -32 -55 -98
-81 -148 -27 -49 -83 -153 -125 -230 -42 -77 -94 -171 -115 -210 -21 -38 -59
-108 -85 -155 -26 -47 -69 -125 -95 -175 -26 -49 -51 -94 -55 -100 -4 -5 -25
-43 -46 -83 -22 -40 -46 -85 -54 -100 -86 -152 -193 -358 -209 -402 -69 -186
-60 -394 22 -501 74 -96 166 -140 302 -142 136 -1 233 44 353 165 222 225 374
549 712 1508 50 143 93 255 115 305 10 21 15 25 19 15 3 -8 31 -89 62 -180
155 -456 328 -831 506 -1095 242 -359 530 -586 795 -627 5 -1 24 -5 43 -10 35
-8 228 -11 265 -4 11 2 47 7 80 11 86 10 276 60 380 101 111 44 332 158 417
215 254 172 517 404 602 534 131 196 132 392 3 454 -96 47 -200 14 -301 -95
-101 -109 -250 -257 -292 -289 -177 -138 -425 -252 -629 -289 -99 -19 -294
-26 -375 -13 -231 34 -488 346 -673 817 -69 177 -157 488 -138 491 84 11 278
61 411 107 180 62 272 100 450 188 605 301 1038 721 1230 1194 12 30 26 64 30
75 12 29 38 115 44 150 4 17 9 41 11 55 22 106 28 356 11 480 -25 178 -121
440 -202 547 -13 17 -24 35 -24 38 0 14 -107 143 -175 210 -270 269 -705 464
-1160 521 -27 3 -61 8 -75 10 -14 2 -88 7 -165 10 -77 3 -145 7 -152 9 -6 2
-13 2 -15 1z"/>
</g>
</svg>
